<svg width="88" height="28" viewBox="0 0 88 28" fill="none" xmlns="http://www.w3.org/2000/svg">
<g clip-path="url(#clip0_6418_5679)">
<path d="M0.359375 23.9966C4.18845 15.5805 3.92374 11.0391 3.64331 9.49524C4.84628 9.94883 5.88938 10.826 6.76999 12.0993C6.27465 14.8783 5.22106 18.5589 3.12962 23.2178L0.361996 24.0021L0.359375 23.9966Z" fill="#C9C9C9"/>
<path d="M34.687 20.3597C34.3463 19.8187 34.0109 19.3214 33.6885 18.8733C33.3661 18.4251 33.0962 18.0617 32.8891 17.7885H32.8865C33.8222 17.4578 34.5324 16.9551 35.012 16.2801C35.4969 15.6079 35.7354 14.7937 35.7354 13.8455C35.7354 12.3453 35.2296 11.2195 34.2205 10.4599C33.2141 9.70301 31.7438 9.32593 29.8175 9.32593C29.2645 9.32593 28.6512 9.35052 27.9855 9.39697C27.3172 9.44616 26.717 9.53906 26.1719 9.67569V23.759H28.093V18.1683H30.36C30.5382 18.1683 30.7112 18.1683 30.8842 18.1492C31.1332 18.4689 31.4136 18.8377 31.7255 19.2667C32.0374 19.6958 32.3492 20.1521 32.6664 20.6412C32.9835 21.1303 33.2954 21.6468 33.6072 22.1796C33.9165 22.7179 34.2048 23.2453 34.4669 23.7699H36.5662C36.3303 23.2207 36.0446 22.6496 35.7065 22.0566C35.3711 21.4664 35.0304 20.898 34.687 20.3543V20.3597ZM32.5825 16.0342C32.2208 16.2282 31.7753 16.3594 31.2459 16.4277C30.7191 16.496 30.1241 16.5315 29.4637 16.5315H28.0982V11.143C28.5306 11.0993 29.1597 11.0829 29.9774 11.0829H29.9826C30.4937 11.0829 30.9811 11.1239 31.4346 11.2059C31.8906 11.2879 32.2863 11.4327 32.6218 11.6404C32.9573 11.848 33.2246 12.1267 33.4212 12.4847C33.6177 12.8427 33.7199 13.2935 33.7199 13.8263C33.7199 14.4029 33.6203 14.8674 33.4212 15.2199C33.222 15.5697 32.9415 15.8457 32.5799 16.0369L32.5825 16.0342Z" fill="white"/>
<path d="M41.3841 12.7716C40.7891 12.7716 40.2099 12.8891 39.6412 13.1214C39.0751 13.3564 38.5719 13.7061 38.1368 14.1734C37.7018 14.6406 37.3506 15.2309 37.0885 15.9386C36.8264 16.6463 36.6927 17.4742 36.6927 18.4251H36.6875C36.6875 19.2367 36.7897 19.9827 36.9941 20.6631C37.2012 21.3434 37.5131 21.9309 37.935 22.4282C38.357 22.9256 38.8969 23.3136 39.5495 23.595C40.2021 23.8737 40.9778 24.0186 41.8742 24.0186C42.5871 24.0186 43.2239 23.9502 43.7848 23.8109C44.3456 23.6715 44.7388 23.5404 44.9615 23.4174L44.7047 21.808C44.4793 21.9173 44.1491 22.0348 43.7062 22.1495C43.2659 22.267 42.7181 22.3244 42.0734 22.3244C40.9254 22.3244 40.0815 22.0348 39.5416 21.4582C38.9991 20.8789 38.6898 20.0346 38.6112 18.9197H45.6561C45.6666 18.8077 45.6744 18.6875 45.6744 18.559V18.2393C45.6744 16.3949 45.3075 15.0232 44.5684 14.1215C43.832 13.2197 42.7679 12.7716 41.3841 12.7716ZM38.6505 17.3731C38.6925 17.0042 38.7737 16.6381 38.8969 16.2801C39.0253 15.9249 39.1983 15.6052 39.4211 15.332C39.6438 15.0587 39.919 14.8346 40.2414 14.6625C40.5664 14.4903 40.9412 14.4056 41.3605 14.4056C42.1127 14.4056 42.705 14.6816 43.1322 15.2391C43.5594 15.7937 43.7691 16.5069 43.756 17.3731H38.6453H38.6505Z" fill="white"/>
<path d="M51.5109 12.8098C50.7325 12.8098 50.0328 12.9464 49.4116 13.2142C48.7905 13.4847 48.2663 13.8564 47.8391 14.3318C47.4119 14.8073 47.0843 15.3702 46.8589 16.026C46.6309 16.6763 46.5234 17.3977 46.5234 18.1819C46.5234 19.0782 46.644 19.8487 46.8799 20.4936C47.1184 21.1385 47.4407 21.6795 47.8522 22.114C48.2637 22.5484 48.7381 22.8681 49.2884 23.0731C49.8362 23.278 50.4338 23.3818 51.0392 23.3818C51.6446 23.3818 52.1792 23.2971 52.6327 23.125C53.0887 22.9528 53.3953 22.8135 53.5526 22.7015V22.7069L53.55 23.1605C53.55 24.1497 53.3062 24.8738 52.8266 25.3274C52.3417 25.781 51.5581 26.0078 50.46 26.0078C49.8781 26.0078 49.3225 25.9504 48.7879 25.8329C48.2558 25.7127 47.805 25.5815 47.4329 25.4285L47.0974 27.098C47.5167 27.2483 48.0173 27.3795 48.5913 27.4915C49.1653 27.6035 49.7759 27.6555 50.4233 27.6555C52.0823 27.6555 53.3246 27.2811 54.1423 26.5379C54.96 25.7946 55.3715 24.5978 55.3715 22.9474V13.3672C54.9364 13.2552 54.3965 13.135 53.757 13.0066C53.1175 12.8754 52.3679 12.8098 51.5109 12.8098ZM53.5369 21.0073C53.2984 21.2013 52.9734 21.3653 52.5645 21.5128C52.1557 21.6576 51.7049 21.7287 51.2174 21.7287C50.8636 21.7287 50.515 21.6604 50.1795 21.521C49.8441 21.3844 49.5479 21.174 49.2884 20.8843C49.0342 20.5974 48.8272 20.2313 48.6778 19.7913C48.5258 19.3514 48.4471 18.8213 48.4471 18.201C48.4471 17.0862 48.7119 16.1926 49.2491 15.5177C49.7812 14.8428 50.5438 14.504 51.5345 14.504C52.0639 14.504 52.4806 14.5286 52.7925 14.575C53.1044 14.6242 53.3508 14.6761 53.5342 14.728V21.0046L53.5369 21.0073Z" fill="white"/>
<path d="M63.7304 13.9192C63.4211 13.5558 63.0149 13.2743 62.5038 13.0749C61.9928 12.8754 61.3716 12.7743 60.6325 12.7743V12.7798H60.6404C59.9957 12.7798 59.3929 12.8289 58.8399 12.9328C58.2869 13.0366 57.8885 13.1404 57.6526 13.2525L57.8702 14.8428C58.0955 14.7472 58.4363 14.6542 58.8897 14.5668C59.3457 14.4766 59.8777 14.4302 60.4831 14.4302C60.9575 14.4302 61.3454 14.4985 61.6416 14.6461C61.9377 14.7909 62.171 14.9821 62.344 15.2226C62.5143 15.4658 62.6349 15.7418 62.7004 16.0506C62.7659 16.3593 62.8 16.6736 62.8 16.9878V17.5234C62.7476 17.5097 62.6558 17.4878 62.5222 17.4633C62.3885 17.4359 62.2365 17.4059 62.0583 17.3703C61.8801 17.3348 61.694 17.3075 61.4948 17.2884C61.2982 17.2665 61.1043 17.2556 60.9208 17.2556C60.3364 17.2556 59.7834 17.3184 59.2566 17.4414C58.7298 17.5644 58.2685 17.7584 57.8728 18.018C57.477 18.2775 57.1625 18.6218 56.9319 19.0481C56.6986 19.4771 56.5859 19.958 56.5859 20.5756C56.5859 21.1931 56.6829 21.7232 56.8821 22.1659C57.0787 22.6058 57.3565 22.961 57.7129 23.2288C58.0693 23.4966 58.4939 23.6933 58.9814 23.8163C59.4689 23.942 60.0035 24.0021 60.5827 24.0021C60.9942 24.0021 61.4031 23.9857 61.8198 23.9529C62.2365 23.9174 62.6218 23.8819 62.9782 23.8382C63.332 23.7944 63.6518 23.7507 63.9374 23.7015C64.2205 23.6524 64.4433 23.6141 64.6005 23.5868V16.8785C64.6005 16.2719 64.535 15.7199 64.4013 15.2171C64.2677 14.7144 64.0501 14.2826 63.7383 13.9165L63.7304 13.9192ZM62.7895 22.2424C62.5641 22.297 62.2811 22.3353 61.9482 22.3572C61.6127 22.379 61.2275 22.3899 60.7898 22.3899H60.7924C60.0664 22.3899 59.4898 22.2506 59.0679 21.9828C58.6459 21.715 58.4336 21.2368 58.4336 20.5482C58.4336 20.1794 58.5201 19.8788 58.6905 19.652C58.8608 19.4252 59.0758 19.2476 59.3326 19.1164C59.5894 18.9853 59.8725 18.9005 60.1844 18.8596C60.4963 18.8158 60.7872 18.7994 61.0676 18.7994C61.4896 18.7994 61.8512 18.824 62.1474 18.8705C62.4436 18.9197 62.6585 18.9771 62.7895 19.0454V22.2424Z" fill="white"/>
<path d="M78.0644 22.1085C77.7289 22.2397 77.2807 22.3053 76.7277 22.3053C76.4106 22.3053 76.1328 22.2643 75.8969 22.1823C75.6584 22.1003 75.4619 21.9583 75.302 21.7588C75.1447 21.5593 75.0242 21.2833 74.9455 20.9308C74.8695 20.5811 74.8276 20.133 74.8276 19.6001V14.6461H78.7275V13.0367H74.825V9.71667L72.9852 10.0473V13.0394H68.1628V9.71941L66.3203 10.05V19.622C66.3203 20.3406 66.3754 20.9691 66.488 21.5129C66.6007 22.0594 66.7973 22.5157 67.0725 22.8873C67.3477 23.2562 67.7172 23.5349 68.1706 23.7207C68.624 23.9038 69.2006 23.9967 69.903 23.9967C70.498 23.9967 71.0248 23.9284 71.486 23.7808C71.9473 23.6333 72.2723 23.5158 72.4584 23.4201L72.1019 21.8298C71.9709 21.8817 71.7376 21.9774 71.3995 22.1058C71.0641 22.237 70.6159 22.3026 70.0629 22.3026C69.7432 22.3026 69.468 22.2616 69.2321 22.1796C68.9962 22.0976 68.797 21.9555 68.6372 21.7561C68.4825 21.5566 68.362 21.2806 68.2833 20.9281C68.2073 20.5783 68.1654 20.1302 68.1654 19.5974V14.6434H72.9825V19.6165C72.9825 20.3352 73.0376 20.9636 73.1503 21.5074C73.263 22.0539 73.4595 22.5102 73.7347 22.8818C74.0099 23.2507 74.3794 23.5294 74.8329 23.7153C75.2863 23.8983 75.8655 23.9912 76.5652 23.9912C77.1602 23.9912 77.687 23.9229 78.1482 23.7754C78.6095 23.6278 78.9345 23.5103 79.1206 23.4147L78.7641 21.8244C78.6331 21.8763 78.3998 21.9719 78.0644 22.1003V22.1085Z" fill="white"/>
<path d="M87.1695 15.2199C87.0359 14.7171 86.8183 14.2854 86.5064 13.9192C86.1946 13.5558 85.791 13.2743 85.2799 13.0749C84.7688 12.8754 84.1477 12.7743 83.4086 12.7743V12.7798H83.4165C82.7717 12.7798 82.1689 12.8289 81.6159 12.9328C81.0629 13.0366 80.6646 13.1404 80.4287 13.2525L80.6462 14.8428C80.8716 14.7472 81.2123 14.6542 81.6657 14.5668C82.1218 14.4766 82.6538 14.4302 83.2592 14.4302C83.7336 14.4302 84.1215 14.4985 84.4176 14.6461C84.7138 14.7909 84.947 14.9821 85.1174 15.2226C85.2878 15.4658 85.4083 15.7418 85.4738 16.0506C85.5393 16.3593 85.5734 16.6736 85.5734 16.9878V17.5234C85.521 17.5097 85.4293 17.4878 85.2956 17.4633C85.1619 17.4359 85.0099 17.4059 84.8317 17.3703C84.6561 17.3348 84.4674 17.3075 84.2682 17.2884C84.0717 17.2665 83.8777 17.2556 83.6943 17.2556C83.1098 17.2556 82.5568 17.3184 82.03 17.4414C81.5032 17.5644 81.042 17.7584 80.6462 18.018C80.2505 18.2775 79.936 18.6218 79.7053 19.0481C79.4721 19.4771 79.3594 19.958 79.3594 20.5756C79.3594 21.1931 79.4563 21.7232 79.6555 22.1659C79.8521 22.6058 80.1299 22.961 80.4863 23.2288C80.8428 23.4966 81.2674 23.6933 81.7548 23.8163C82.2423 23.942 82.777 24.0021 83.3562 24.0021C83.7677 24.0021 84.1765 23.9857 84.5932 23.9529C85.0099 23.9174 85.3952 23.8819 85.7516 23.8382C86.1055 23.7944 86.4252 23.7507 86.7109 23.7015C86.9939 23.6524 87.2167 23.6141 87.3739 23.5868V16.8785C87.3739 16.2719 87.3084 15.7199 87.1748 15.2171L87.1695 15.2199ZM85.5656 22.2424C85.3402 22.297 85.0571 22.3353 84.7243 22.3572C84.3914 22.379 84.0035 22.3899 83.5658 22.3899H83.5685C82.8425 22.3899 82.2659 22.2506 81.8439 21.9828C81.422 21.715 81.2097 21.2368 81.2097 20.5482C81.2097 20.1794 81.2962 19.8788 81.4665 19.652C81.6369 19.4252 81.8518 19.2476 82.1086 19.1164C82.3655 18.9853 82.6485 18.9005 82.9604 18.8596C83.2723 18.8158 83.5658 18.7994 83.8437 18.7994C84.2656 18.7994 84.6273 18.824 84.9235 18.8705C85.2196 18.9197 85.4345 18.9771 85.5656 19.0454V22.2424Z" fill="white"/>
<path d="M6.90887 24.0294C6.90887 24.0294 11.4456 22.1386 15.9928 22.1686C18.0423 22.1686 20.1127 22.5949 21.8478 23.8491C22.0863 21.8079 21.8478 13.9493 18.9098 7.69458C17.2088 4.06856 14.9313 1.7514 12.1296 0.803223C12.3603 1.85523 12.6879 4.29262 12.0431 8.35038C10.772 16.1271 6.90625 24.0294 6.90625 24.0294H6.90887Z" fill="#EEEEEE"/>
<path d="M7.6097 5.63967C7.6097 5.63967 8.22036 8.01147 7.27423 12.9108C6.22065 18.3458 3.46875 24.0157 3.46875 24.0157L6.63736 23.1031C11.0063 13.0803 11.3523 8.50332 11.3523 8.50332C10.283 7.10702 9.03545 6.14791 7.61232 5.63967V5.63147" fill="#D8D8D8"/>
</g>
<defs>
<clipPath id="clip0_6418_5679">
<rect width="87.0124" height="26.8495" fill="white" transform="translate(0.359375 0.803223)"/>
</clipPath>
</defs>
</svg>
