<svg width="88" height="27" viewBox="0 0 88 27" fill="none" xmlns="http://www.w3.org/2000/svg">
<g clip-path="url(#clip0_6418_10495)">
<g filter="url(#filter0_i_6418_10495)">
<path d="M0 23.1934C3.82907 14.7773 3.56436 10.2359 3.28393 8.69202C4.48691 9.14561 5.53001 10.0227 6.41061 11.2961C5.91527 14.075 4.86169 17.7557 2.77025 22.4146L0.00262086 23.1988L0 23.1934Z" fill="#FF6600"/>
</g>
<path d="M34.3277 19.5565C33.987 19.0155 33.6515 18.5182 33.3291 18.07C33.0068 17.6219 32.7368 17.2585 32.5298 16.9852H32.5271C33.4628 16.6546 34.173 16.1518 34.6526 15.4769C35.1375 14.8047 35.376 13.9904 35.376 13.0423C35.376 11.5421 34.8702 10.4163 33.8611 9.65669C32.8547 8.89979 31.3844 8.52271 29.4581 8.52271C28.9051 8.52271 28.2918 8.5473 27.6261 8.59375C26.9578 8.64293 26.3576 8.73584 25.8125 8.87246V22.9558H27.7336V17.3651H30.0006C30.1788 17.3651 30.3518 17.3651 30.5248 17.3459C30.7738 17.6656 31.0542 18.0345 31.3661 18.4635C31.678 18.8925 31.9899 19.3489 32.307 19.838C32.6241 20.3271 32.936 20.8435 33.2479 21.3764C33.5571 21.9147 33.8454 22.442 34.1075 22.9667H36.2068C35.9709 22.4174 35.6853 21.8464 35.3472 21.2534C35.0117 20.6632 34.671 20.0948 34.3277 19.5511V19.5565ZM32.2231 15.231C31.8614 15.425 31.4159 15.5562 30.8865 15.6245C30.3597 15.6928 29.7648 15.7283 29.1043 15.7283H27.7388V10.3398C28.1713 10.2961 28.8003 10.2797 29.618 10.2797H29.6232C30.1343 10.2797 30.6218 10.3207 31.0752 10.4027C31.5312 10.4846 31.927 10.6295 32.2624 10.8371C32.5979 11.0448 32.8652 11.3235 33.0618 11.6815C33.2584 12.0394 33.3606 12.4903 33.3606 13.0231C33.3606 13.5997 33.261 14.0642 33.0618 14.4167C32.8626 14.7665 32.5822 15.0424 32.2205 15.2337L32.2231 15.231Z" fill="#FF6600"/>
<path d="M41.0247 11.9684C40.4298 11.9684 39.8506 12.0859 39.2818 12.3181C38.7157 12.5531 38.2125 12.9029 37.7775 13.3702C37.3424 13.8374 36.9912 14.4276 36.7291 15.1353C36.467 15.8431 36.3334 16.671 36.3334 17.6219H36.3281C36.3281 18.4335 36.4303 19.1794 36.6348 19.8598C36.8418 20.5402 37.1537 21.1277 37.5757 21.625C37.9976 22.1223 38.5375 22.5104 39.1901 22.7918C39.8427 23.0705 40.6185 23.2153 41.5148 23.2153C42.2277 23.2153 42.8645 23.147 43.4254 23.0077C43.9863 22.8683 44.3794 22.7372 44.6022 22.6142L44.3453 21.0047C44.1199 21.114 43.7897 21.2315 43.3468 21.3463C42.9065 21.4638 42.3587 21.5212 41.714 21.5212C40.5661 21.5212 39.7221 21.2315 39.1822 20.655C38.6397 20.0757 38.3305 19.2314 38.2518 18.1165H45.2967C45.3072 18.0045 45.315 17.8842 45.315 17.7558V17.4361C45.315 15.5917 44.9481 14.22 44.209 13.3182C43.4726 12.4165 42.4085 11.9684 41.0247 11.9684V11.9684ZM38.2911 16.5699C38.3331 16.201 38.4143 15.8349 38.5375 15.4769C38.6659 15.1217 38.8389 14.802 39.0617 14.5287C39.2845 14.2555 39.5596 14.0314 39.882 13.8593C40.207 13.6871 40.5818 13.6024 41.0011 13.6024C41.7533 13.6024 42.3456 13.8784 42.7728 14.4358C43.2 14.9905 43.4097 15.7037 43.3966 16.5699H38.2859H38.2911Z" fill="#FF6600"/>
<path d="M51.1516 12.0066C50.3732 12.0066 49.6734 12.1432 49.0522 12.411C48.4311 12.6815 47.9069 13.0531 47.4797 13.5286C47.0525 14.004 46.7249 14.5669 46.4995 15.2227C46.2715 15.8731 46.1641 16.5945 46.1641 17.3787C46.1641 18.2749 46.2846 19.0455 46.5205 19.6904C46.759 20.3352 47.0814 20.8763 47.4928 21.3107C47.9043 21.7452 48.3787 22.0649 48.9291 22.2698C49.4768 22.4748 50.0744 22.5786 50.6798 22.5786C51.2852 22.5786 51.8199 22.4939 52.2733 22.3218C52.7293 22.1496 53.0359 22.0103 53.1932 21.8982V21.9037L53.1906 22.3573C53.1906 23.3465 52.9468 24.0706 52.4672 24.5242C51.9824 24.9778 51.1987 25.2045 50.1006 25.2045C49.5188 25.2045 48.9631 25.1472 48.4285 25.0297C47.8964 24.9094 47.4457 24.7783 47.0735 24.6253L46.738 26.2948C47.1574 26.4451 47.658 26.5763 48.2319 26.6883C48.8059 26.8003 49.4165 26.8522 50.0639 26.8522C51.7229 26.8522 52.9652 26.4779 53.7829 25.7347C54.6006 24.9914 55.0121 23.7946 55.0121 22.1442V12.564C54.577 12.452 54.0371 12.3318 53.3976 12.2033C52.7581 12.0722 52.0086 12.0066 51.1516 12.0066V12.0066ZM53.1775 20.2041C52.939 20.3981 52.614 20.562 52.2051 20.7096C51.7963 20.8544 51.3455 20.9255 50.858 20.9255C50.5042 20.9255 50.1556 20.8571 49.8202 20.7178C49.4847 20.5812 49.1885 20.3708 48.9291 20.0811C48.6748 19.7942 48.4678 19.4281 48.3184 18.9881C48.1664 18.5482 48.0878 18.0181 48.0878 17.3978C48.0878 16.2829 48.3525 15.3894 48.8898 14.7145C49.4218 14.0396 50.1845 13.7007 51.1751 13.7007C51.7046 13.7007 52.1213 13.7253 52.4332 13.7718C52.745 13.821 52.9914 13.8729 53.1749 13.9248V20.2013L53.1775 20.2041Z" fill="#FF6600"/>
<path d="M63.371 13.116C63.0618 12.7526 62.6555 12.4711 62.1445 12.2716C61.6334 12.0722 61.0122 11.9711 60.2732 11.9711V11.9765H60.281C59.6363 11.9765 59.0335 12.0257 58.4805 12.1296C57.9275 12.2334 57.5291 12.3372 57.2933 12.4493L57.5108 14.0396C57.7362 13.9439 58.0769 13.851 58.5303 13.7636C58.9863 13.6734 59.5184 13.627 60.1238 13.627C60.5981 13.627 60.986 13.6953 61.2822 13.8428C61.5784 13.9877 61.8116 14.1789 61.9846 14.4194C62.1549 14.6626 62.2755 14.9386 62.341 15.2473C62.4065 15.5561 62.4406 15.8703 62.4406 16.1846V16.7201C62.3882 16.7065 62.2965 16.6846 62.1628 16.66C62.0291 16.6327 61.8771 16.6026 61.6989 16.5671C61.5207 16.5316 61.3346 16.5043 61.1354 16.4852C60.9389 16.4633 60.7449 16.4524 60.5615 16.4524C59.977 16.4524 59.424 16.5152 58.8972 16.6382C58.3704 16.7611 57.9092 16.9551 57.5134 17.2147C57.1177 17.4743 56.8032 17.8186 56.5725 18.2449C56.3393 18.6739 56.2266 19.1548 56.2266 19.7723C56.2266 20.3899 56.3235 20.92 56.5227 21.3627C56.7193 21.8026 56.9971 22.1578 57.3535 22.4256C57.71 22.6934 58.1345 22.8901 58.622 23.0131C59.1095 23.1388 59.6442 23.1989 60.2234 23.1989C60.6348 23.1989 61.0437 23.1825 61.4604 23.1497C61.8771 23.1142 62.2624 23.0787 62.6188 23.0349C62.9726 22.9912 63.2924 22.9475 63.5781 22.8983C63.8611 22.8491 64.0839 22.8109 64.2411 22.7836V16.0753C64.2411 15.4687 64.1756 14.9167 64.042 14.4139C63.9083 13.9111 63.6908 13.4794 63.3789 13.1133L63.371 13.116ZM62.4301 21.4392C62.2047 21.4938 61.9217 21.5321 61.5888 21.5539C61.2534 21.5758 60.8681 21.5867 60.4304 21.5867H60.433C59.7071 21.5867 59.1305 21.4474 58.7085 21.1796C58.2866 20.9118 58.0743 20.4336 58.0743 19.745C58.0743 19.3761 58.1608 19.0756 58.3311 18.8488C58.5015 18.622 58.7164 18.4444 58.9732 18.3132C59.2301 18.182 59.5131 18.0973 59.825 18.0563C60.1369 18.0126 60.4278 17.9962 60.7082 17.9962C61.1302 17.9962 61.4919 18.0208 61.788 18.0673C62.0842 18.1165 62.2991 18.1738 62.4301 18.2421V21.4392V21.4392Z" fill="#FF6600"/>
<path d="M77.705 21.3053C77.3695 21.4365 76.9214 21.5021 76.3684 21.5021C76.0512 21.5021 75.7734 21.4611 75.5375 21.3791C75.299 21.2971 75.1025 21.155 74.9426 20.9556C74.7854 20.7561 74.6648 20.4801 74.5862 20.1276C74.5102 19.7779 74.4682 19.3297 74.4682 18.7969V13.8429H78.3681V12.2334H74.4656V8.91345L72.6258 9.24408V12.2362H67.8034V8.91619L65.9609 9.24682V18.8188C65.9609 19.5374 66.016 20.1659 66.1287 20.7096C66.2414 21.2561 66.4379 21.7125 66.7131 22.0841C66.9883 22.453 67.3579 22.7317 67.8113 22.9175C68.2647 23.1006 68.8413 23.1935 69.5436 23.1935C70.1386 23.1935 70.6654 23.1252 71.1266 22.9776C71.5879 22.8301 71.9129 22.7126 72.099 22.6169L71.7426 21.0266C71.6115 21.0785 71.3782 21.1742 71.0402 21.3026C70.7047 21.4338 70.2565 21.4993 69.7035 21.4993C69.3838 21.4993 69.1086 21.4583 68.8727 21.3764C68.6368 21.2944 68.4376 21.1523 68.2778 20.9528C68.1231 20.7534 68.0026 20.4774 67.924 20.1249C67.848 19.7751 67.806 19.327 67.806 18.7942V13.8401H72.6232V18.8133C72.6232 19.5319 72.6782 20.1604 72.7909 20.7042C72.9036 21.2507 73.1001 21.707 73.3753 22.0786C73.6505 22.4475 74.0201 22.7262 74.4735 22.912C74.9269 23.0951 75.5061 23.188 76.2059 23.188C76.8008 23.188 77.3276 23.1197 77.7889 22.9721C78.2501 22.8246 78.5751 22.7071 78.7612 22.6115L78.4048 21.0211C78.2737 21.0731 78.0405 21.1687 77.705 21.2971V21.3053Z" fill="#FF6600"/>
<path d="M86.8101 14.4167C86.6765 13.9139 86.459 13.4821 86.1471 13.116C85.8352 12.7526 85.4316 12.4711 84.9205 12.2716C84.4094 12.0722 83.7883 11.9711 83.0492 11.9711V11.9765H83.0571C82.4124 11.9765 81.8096 12.0257 81.2566 12.1296C80.7036 12.2334 80.3052 12.3372 80.0693 12.4493L80.2868 14.0396C80.5122 13.9439 80.8529 13.851 81.3063 13.7636C81.7624 13.6734 82.2944 13.627 82.8998 13.627C83.3742 13.627 83.7621 13.6953 84.0582 13.8428C84.3544 13.9877 84.5877 14.1789 84.758 14.4194C84.9284 14.6626 85.0489 14.9386 85.1145 15.2473C85.18 15.5561 85.214 15.8703 85.214 16.1846V16.7201C85.1616 16.7065 85.0699 16.6846 84.9362 16.66C84.8026 16.6327 84.6506 16.6026 84.4723 16.5671C84.2968 16.5316 84.1081 16.5043 83.9089 16.4852C83.7123 16.4633 83.5184 16.4524 83.3349 16.4524C82.7504 16.4524 82.1974 16.5152 81.6707 16.6382C81.1439 16.7611 80.6826 16.9551 80.2868 17.2147C79.8911 17.4743 79.5766 17.8186 79.346 18.2449C79.1127 18.6739 79 19.1548 79 19.7723C79 20.3899 79.097 20.92 79.2962 21.3627C79.4927 21.8026 79.7705 22.1578 80.127 22.4256C80.4834 22.6934 80.908 22.8901 81.3955 23.0131C81.8829 23.1388 82.4176 23.1989 82.9968 23.1989C83.4083 23.1989 83.8171 23.1825 84.2338 23.1497C84.6506 23.1142 85.0358 23.0787 85.3923 23.0349C85.7461 22.9912 86.0658 22.9475 86.3515 22.8983C86.6345 22.8491 86.8573 22.8109 87.0146 22.7836V16.0753C87.0146 15.4687 86.9491 14.9167 86.8154 14.4139L86.8101 14.4167ZM85.2062 21.4392C84.9808 21.4938 84.6977 21.5321 84.3649 21.5539C84.032 21.5758 83.6442 21.5867 83.2065 21.5867H83.2091C82.4831 21.5867 81.9065 21.4474 81.4846 21.1796C81.0626 20.9118 80.8503 20.4336 80.8503 19.745C80.8503 19.3761 80.9368 19.0756 81.1072 18.8488C81.2775 18.622 81.4924 18.4444 81.7493 18.3132C82.0061 18.182 82.2892 18.0973 82.6011 18.0563C82.9129 18.0126 83.2065 17.9962 83.4843 17.9962C83.9062 17.9962 84.2679 18.0208 84.5641 18.0673C84.8602 18.1165 85.0751 18.1738 85.2062 18.2421V21.4392V21.4392Z" fill="#FF6600"/>
<path d="M6.55731 23.2262C6.55731 23.2262 11.094 21.3353 15.6412 21.3654C17.6907 21.3654 19.7612 21.7917 21.4962 23.0459C21.7347 21.0047 21.4962 13.146 18.5582 6.89136C16.8573 3.26533 14.5797 0.948176 11.7781 0C12.0087 1.05201 12.3363 3.4894 11.6916 7.54715C10.4205 15.3238 6.55469 23.2262 6.55469 23.2262H6.55731Z" fill="#FF6600"/>
<g filter="url(#filter1_i_6418_10495)">
<path d="M7.25033 4.83644C7.25033 4.83644 7.86099 7.20825 6.91486 12.1076C5.86127 17.5426 3.10938 23.2125 3.10938 23.2125L6.27799 22.2998C10.647 12.277 10.9929 7.7001 10.9929 7.7001C9.9236 6.30379 8.67607 5.34469 7.25295 4.83644V4.82825" fill="#FF6600"/>
</g>
</g>
<defs>
<filter id="filter0_i_6418_10495" x="0" y="8.69202" width="6.41406" height="18.5068" filterUnits="userSpaceOnUse" color-interpolation-filters="sRGB">
<feFlood flood-opacity="0" result="BackgroundImageFix"/>
<feBlend mode="normal" in="SourceGraphic" in2="BackgroundImageFix" result="shape"/>
<feColorMatrix in="SourceAlpha" type="matrix" values="0 0 0 0 0 0 0 0 0 0 0 0 0 0 0 0 0 0 127 0" result="hardAlpha"/>
<feOffset dy="4"/>
<feGaussianBlur stdDeviation="2"/>
<feComposite in2="hardAlpha" operator="arithmetic" k2="-1" k3="1"/>
<feColorMatrix type="matrix" values="0 0 0 0 1 0 0 0 0 1 0 0 0 0 1 0 0 0 0.25 0"/>
<feBlend mode="normal" in2="shape" result="effect1_innerShadow_6418_10495"/>
</filter>
<filter id="filter1_i_6418_10495" x="3.10938" y="4.82825" width="7.88281" height="22.3843" filterUnits="userSpaceOnUse" color-interpolation-filters="sRGB">
<feFlood flood-opacity="0" result="BackgroundImageFix"/>
<feBlend mode="normal" in="SourceGraphic" in2="BackgroundImageFix" result="shape"/>
<feColorMatrix in="SourceAlpha" type="matrix" values="0 0 0 0 0 0 0 0 0 0 0 0 0 0 0 0 0 0 127 0" result="hardAlpha"/>
<feOffset dy="4"/>
<feGaussianBlur stdDeviation="2"/>
<feComposite in2="hardAlpha" operator="arithmetic" k2="-1" k3="1"/>
<feColorMatrix type="matrix" values="0 0 0 0 0.7625 0 0 0 0 0.641771 0 0 0 0 0.641771 0 0 0 0.25 0"/>
<feBlend mode="normal" in2="shape" result="effect1_innerShadow_6418_10495"/>
</filter>
<clipPath id="clip0_6418_10495">
<rect width="87.0124" height="26.8495" fill="white"/>
</clipPath>
</defs>
</svg>
